<?xml version="1.0" encoding="UTF-8"?>
<svg width="720" height="720" viewBox="0 0 360 360" xmlns="http://www.w3.org/2000/svg">
  <defs>
    <radialGradient id="g" cx="50%" cy="40%" r="70%">
      <stop offset="0%" stop-color="#18E273" stop-opacity="0.35"/>
      <stop offset="100%" stop-color="#18E273" stop-opacity="0"/>
    </radialGradient>
  </defs>
  <rect width="100%" height="100%" fill="transparent"/>
  <!-- brilho de fundo -->
  <circle cx="180" cy="180" r="130" fill="url(#g)"/>

  <!-- corpo do robô -->
  <g id="bot" transform="translate(0,10)">
    <rect x="110" y="90" rx="18" ry="18" width="140" height="120" fill="#ffffff" stroke="#0b1220" stroke-width="3"/>
    <!-- olhos -->
    <g id="eyes">
      <circle cx="150" cy="135" r="8" fill="#0b1220"/>
      <circle cx="210" cy="135" r="8" fill="#0b1220"/>
      <rect id="blink" x="142" y="130" width="76" height="10" fill="#ffffff" opacity="0">
        <animate attributeName="opacity" values="0;1;0" dur="3.5s" repeatCount="indefinite"/>
      </rect>
    </g>
    <!-- boca -->
    <rect x="150" y="165" width="60" height="8" rx="4" fill="#18E273"/>
    <!-- antena -->
    <line x1="180" y1="90" x2="180" y2="60" stroke="#0b1220" stroke-width="3"/>
    <circle id="led" cx="180" cy="56" r="6" fill="#18E273">
      <animate attributeName="opacity" values="1;0.4;1" dur="1.4s" repeatCount="indefinite"/>
    </circle>

    <!-- braços -->
    <rect x="86" y="120" width="24" height="60" rx="8" fill="#ffffff" stroke="#0b1220" stroke-width="3"/>
    <rect x="226" y="120" width="24" height="60" rx="8" fill="#ffffff" stroke="#0b1220" stroke-width="3"/>

    <!-- laptop -->
    <g transform="translate(126,200)">
      <rect width="108" height="68" rx="8" fill="#0b1220"/>
      <rect x="6" y="6" width="96" height="38" rx="4" fill="#0f1626"/>
      <!-- telas/cards piscando -->
      <rect x="10" y="10" width="28" height="14" rx="3" fill="#18E273">
        <animate attributeName="opacity" values="1;0.4;1" dur="2.5s" repeatCount="indefinite"/>
      </rect>
      <rect x="44" y="10" width="28" height="14" rx="3" fill="#18E273">
        <animate attributeName="opacity" values="0.6;1;0.6" dur="2.5s" repeatCount="indefinite" begin="0.5s"/>
      </rect>
      <rect x="78" y="10" width="14" height="14" rx="3" fill="#18E273">
        <animate attributeName="opacity" values="0.5;1;0.5" dur="2.5s" repeatCount="indefinite" begin="1s"/>
      </rect>
      <rect x="6" y="46" width="96" height="8" rx="3" fill="#18E273"/>
    </g>
  </g>

  <!-- ícones orbitando: globo, raio, check -->
  <g transform="translate(180,180)">
    <g>
      <circle r="95" fill="none" stroke="#e2f8ee" stroke-dasharray="6 6" stroke-width="1"/>
      <g>
        <circle r="8" fill="#18E273"/>
        <animateTransform attributeName="transform" attributeType="XML" type="rotate"
          from="0" to="360" dur="10s" repeatCount="indefinite"/>
      </g>
      <g>
        <rect x="-6" y="-6" width="12" height="12" fill="#18E273"/>
        <animateTransform attributeName="transform" type="rotate" from="120" to="480" dur="10s" repeatCount="indefinite"/>
      </g>
      <g>
        <polygon points="0,-8 8,0 0,8 -8,0" fill="#18E273"/>
        <animateTransform attributeName="transform" type="rotate" from="240" to="600" dur="10s" repeatCount="indefinite"/>
      </g>
    </g>
  </g>
</svg>
